<svg width="360" height="112" viewBox="0 0 360 112" fill="none" xmlns="http://www.w3.org/2000/svg">
<mask id="mask0" mask-type="alpha" maskUnits="userSpaceOnUse" x="0" y="0" width="360" height="112">
<rect width="360" height="112" fill="#FFA14F"/>
<rect width="360" height="112" fill="url(#paint0_linear)"/>
</mask>
<g mask="url(#mask0)">
<rect width="360" height="112" fill="url(#paint1_linear)"/>
<path d="M34.86 40.94C31.94 40.16 30.66 38.22 30.62 36.3H34.26V34.22H30.62V32.24H27.98V34.22H24.38V36.3H27.98C27.94 38.38 26.66 40.44 23.72 41.26L24.98 43.32C27.08 42.68 28.54 41.4 29.34 39.78C30.16 41.26 31.58 42.44 33.66 43L34.86 40.94ZM26.06 46.46H35.72V50.74H38.36V44.36H26.06V46.46ZM40.8 36.84H38.36V32.3H35.72V43.58H38.36V39H40.8V36.84ZM54.3284 36.92H47.1484V35.82H54.3284V36.92ZM56.9484 32.62H54.3284V33.9H47.1484V32.62H44.5284V38.88H56.9484V32.62ZM59.0684 41.98V39.9H42.4084V41.98H49.3884V43.22H44.4284V50.58H57.4884V48.72H47.0484V47.74H56.8484V45.98H47.0484V45.06H57.1884V43.22H52.0284V41.98H59.0684ZM74.4073 34.74C76.7473 34.74 78.1873 35.32 78.1873 36.46C78.1873 37.6 76.7473 38.18 74.4073 38.18C72.1073 38.18 70.6473 37.6 70.6473 36.46C70.6473 35.32 72.1073 34.74 74.4073 34.74ZM74.4073 40.28C78.3873 40.28 81.0273 38.8 81.0273 36.46C81.0273 34.14 78.3873 32.64 74.4073 32.64C70.4473 32.64 67.7873 34.14 67.7873 36.46C67.7873 38.8 70.4473 40.28 74.4073 40.28ZM70.7073 44.88H68.0273V50.4H80.9473V48.3H70.7073V44.88ZM66.0873 41.24V43.34H73.2273V46.5H75.9273V43.34H82.7673V41.24H66.0873ZM92.9158 48.74C90.4558 48.74 89.1958 48.32 89.1958 47.36C89.1958 46.4 90.4558 45.96 92.9158 45.96C95.3758 45.96 96.6358 46.4 96.6358 47.36C96.6358 48.32 95.3758 48.74 92.9158 48.74ZM92.9158 43.96C88.9358 43.96 86.5358 45.18 86.5358 47.36C86.5358 49.52 88.9358 50.74 92.9158 50.74C96.8958 50.74 99.3158 49.52 99.3158 47.36C99.3158 45.18 96.8958 43.96 92.9158 43.96ZM94.2958 40.96V39.44H99.4158V37.34H89.2958V35.18H99.3158V33.08H86.6758V39.44H91.6558V40.96H84.6558V43.06H101.316V40.96H94.2958ZM105.024 46.86H115.184V50.74H117.824V44.76H105.024V46.86ZM107.924 36.38H115.104V37.82H107.924V36.38ZM112.804 41.4V39.88H117.724V32.78H115.104V34.4H107.924V32.78H105.304V39.88H110.164V41.4H103.184V43.5H119.844V41.4H112.804ZM141.203 44.46C141.943 40.54 141.943 37.94 141.943 35.64V33.88H128.563V35.98H139.303C139.303 38.12 139.263 40.68 138.563 44.16L141.203 44.46ZM135.403 46.38V40.04H132.763V46.38H126.883V48.5H143.543V46.38H135.403ZM157.612 37.62H147.332V43.84H160.632V41.74H149.952V39.68H160.212V33.54H147.312V35.64H157.612V37.62ZM145.412 46.48V48.64H162.092V46.48H145.412ZM178.8 37.28H168.66V32.96H166.02V39.38H178.8V37.28ZM168.5 44.84H165.84V50.32H178.9V48.22H168.5V44.84ZM163.96 41.26V43.38H180.64V41.26H163.96ZM195.288 48.38H188.308V46.84H195.288V48.38ZM195.288 44.82H188.308V43.18H185.708V50.48H197.908V43.18H195.288V44.82ZM189.408 39.76H185.908V37.58H189.408V39.76ZM195.268 32.3V36.5H191.988V33.24H189.408V35.56H185.908V33.24H183.288V41.86H191.988V38.62H195.268V42.4H197.908V32.3H195.268ZM33.12 70.22C33.24 69.6 33.32 68.92 33.32 68.18C33.32 67.36 33.22 66.6 33.06 65.9H37.2V70.22H33.12ZM28.86 72.98C27.14 72.98 25.94 71.1 25.94 68.18C25.94 65.28 27.14 63.4 28.86 63.4C30.56 63.4 31.78 65.28 31.78 68.18C31.78 71.1 30.56 72.98 28.86 72.98ZM37.2 60.54V64.56H32.6C31.84 62.88 30.52 61.92 28.86 61.92C26.24 61.92 24.38 64.36 24.38 68.18C24.38 72 26.24 74.44 28.86 74.44C30.58 74.44 31.98 73.38 32.72 71.56H37.2V78.52H38.84V60.54H37.2ZM43.6684 62.48V63.8H50.4084C50.0684 68.06 47.6684 71.5 42.8484 73.8L43.7284 75.14C49.6884 72.22 52.0684 67.66 52.0684 62.48H43.6684ZM55.6884 60.54V78.48H57.3284V60.54H55.6884ZM75.8769 60.56H74.2369V70.8H75.8769V60.56ZM66.2369 62.96C68.0169 62.96 69.3369 64.14 69.3369 65.78C69.3369 67.44 68.0169 68.6 66.2369 68.6C64.4569 68.6 63.1769 67.44 63.1769 65.78C63.1769 64.14 64.4569 62.96 66.2369 62.96ZM66.2369 69.96C68.9569 69.96 70.9369 68.26 70.9369 65.78C70.9369 63.3 68.9569 61.6 66.2369 61.6C63.5369 61.6 61.5769 63.3 61.5769 65.78C61.5769 68.26 63.5369 69.96 66.2369 69.96ZM73.8769 71.58H72.2769V72.54C72.2769 73.94 71.4169 75.74 69.6969 76.8C68.0369 75.82 67.2169 74.12 67.2169 72.54V71.58H65.6369V72.54C65.6369 74.26 64.2969 76.2 62.0369 77L62.8569 78.24C64.5369 77.6 65.7569 76.36 66.3969 74.92C66.9369 76.42 68.0169 77.72 69.7369 78.4C71.3969 77.68 72.4969 76.32 73.0569 74.86C73.6569 76.36 74.8969 77.6 76.6569 78.24L77.4769 77C75.1969 76.24 73.8769 74.4 73.8769 72.54V71.58ZM90.9853 68.5C88.1253 67.62 86.7853 65.56 86.6653 63.48H90.3053V61.4H80.2853V63.48H83.9853C83.8853 65.7 82.5253 67.88 79.5853 68.82L80.9253 70.86C83.0653 70.18 84.5453 68.78 85.3653 67C86.2053 68.64 87.6053 69.94 89.6653 70.56L90.9853 68.5ZM85.1453 73.84H92.2253V76.44H85.1453V73.84ZM82.5453 78.5H94.8053V71.76H82.5453V78.5ZM92.1453 60.32V70.92H94.8053V60.32H92.1453Z" fill="white"/>
</g>
<path d="M299 53L310.17 53L305.29 57.88C304.9 58.27 304.9 58.91 305.29 59.3C305.68 59.69 306.31 59.69 306.7 59.3L313.29 52.71C313.68 52.32 313.68 51.69 313.29 51.3L306.7 44.71C306.31 44.32 305.68 44.32 305.29 44.71C304.9 45.1 304.9 45.73 305.29 46.12L310.17 51L299 51C298.45 51 298 51.45 298 52C298 52.55 298.45 53 299 53Z" fill="white"/>
<defs>
<linearGradient id="paint0_linear" x1="61.7308" y1="-42.5" x2="330.785" y2="99.1848" gradientUnits="userSpaceOnUse">
<stop stop-color="#F3FFA8"/>
<stop offset="1" stop-color="#F3FFA8" stop-opacity="0"/>
</linearGradient>
<linearGradient id="paint1_linear" x1="320.016" y1="180.949" x2="-138.437" y2="23.2673" gradientUnits="userSpaceOnUse">
<stop stop-color="#FFA14F"/>
<stop offset="1" stop-color="#FF5208"/>
</linearGradient>
</defs>
</svg>
