<svg width="360" height="112" viewBox="0 0 360 112" fill="none" xmlns="http://www.w3.org/2000/svg">
<mask id="mask0" mask-type="alpha" maskUnits="userSpaceOnUse" x="0" y="0" width="360" height="112">
<rect width="360" height="112" fill="#FFA14F"/>
<rect width="360" height="112" fill="url(#paint0_linear)"/>
</mask>
<g mask="url(#mask0)">
<rect width="360" height="112" fill="#FFA14F"/>
<path d="M299 57L310.17 57L305.29 61.88C304.9 62.27 304.9 62.91 305.29 63.3C305.68 63.69 306.31 63.69 306.7 63.3L313.29 56.71C313.68 56.32 313.68 55.69 313.29 55.3L306.7 48.71C306.31 48.32 305.68 48.32 305.29 48.71C304.9 49.1 304.9 49.73 305.29 50.12L310.17 55L299 55C298.45 55 298 55.45 298 56C298 56.55 298.45 57 299 57Z" fill="white"/>
<path d="M36.5769 46.3V56.2H39.2369V46.3H36.5769ZM26.9969 57V64.5H39.2369V57H36.6169V58.72H29.6169V57H26.9969ZM29.6169 60.74H36.6169V62.42H29.6169V60.74ZM29.2169 47.06C26.3569 47.06 24.1969 48.88 24.1969 51.4C24.1969 53.94 26.3569 55.76 29.2169 55.76C32.0769 55.76 34.2169 53.94 34.2169 51.4C34.2169 48.88 32.0769 47.06 29.2169 47.06ZM29.2169 49.24C30.6169 49.24 31.6369 50.06 31.6369 51.4C31.6369 52.78 30.6169 53.58 29.2169 53.58C27.8169 53.58 26.7769 52.78 26.7769 51.4C26.7769 50.06 27.8169 49.24 29.2169 49.24ZM53.5853 54.58C50.7653 53.64 49.5053 51.46 49.4253 49.34H53.0053V47.24H43.1053V49.34H46.7253C46.6653 51.62 45.3453 53.94 42.3853 54.9L43.7253 57C45.8653 56.28 47.3053 54.84 48.1253 53.02C48.9253 54.66 50.2853 55.98 52.3053 56.64L53.5853 54.58ZM48.2253 59.76H55.3053V62.44H48.2253V59.76ZM45.6253 64.5H57.8853V57.7H45.6253V64.5ZM55.2453 46.3V50.56H52.4653V52.7H55.2453V56.94H57.8853V46.3H55.2453ZM72.9738 51.86H65.6738V49.14H72.9738V51.86ZM75.5738 47.08H63.0738V53.94H75.5738V47.08ZM65.5938 59.06H62.9538V64.4H75.8538V62.3H65.5938V59.06ZM61.0138 55.4V57.48H68.2738V60.62H70.9138V57.48H77.6938V55.4H61.0138ZM85.5022 47.52C82.6222 47.52 80.4422 49.42 80.4422 52.06C80.4422 54.72 82.6222 56.6 85.5022 56.6C88.3822 56.6 90.5822 54.72 90.5822 52.06C90.5822 49.42 88.3822 47.52 85.5022 47.52ZM85.5022 49.78C86.9222 49.78 88.0022 50.62 88.0022 52.06C88.0022 53.5 86.9222 54.34 85.5022 54.34C84.0822 54.34 83.0022 53.5 83.0022 52.06C83.0022 50.62 84.0822 49.78 85.5022 49.78ZM92.3022 46.28V64.76H94.9422V46.28H92.3022ZM80.0022 61.02C83.1822 61.02 87.5022 60.98 91.4622 60.18L91.3022 58.28C87.4222 58.86 82.9022 58.88 79.6622 58.88L80.0022 61.02ZM103.451 58.8C102.211 58.8 101.291 57.96 101.291 56.56C101.291 55.16 102.211 54.3 103.451 54.3C104.691 54.3 105.591 55.16 105.591 56.54C105.591 57.96 104.691 58.8 103.451 58.8ZM103.451 52.16C100.771 52.16 98.7707 53.98 98.7707 56.54C98.7707 59.14 100.771 60.96 103.451 60.96C106.111 60.96 108.091 59.14 108.091 56.54C108.091 53.98 106.111 52.16 103.451 52.16ZM104.751 46.62H102.111V49.02H98.0307V51.12H108.751V49.02H104.751V46.62ZM115.231 53.5H112.591V46.3H109.951V64.72H112.591V55.68H115.231V53.5ZM117.699 48.2V50.3H123.839C123.459 54.38 121.419 57.26 116.719 59.52L118.099 61.6C124.639 58.44 126.539 53.84 126.539 48.2H117.699ZM129.359 46.28V64.7H132.019V46.28H129.359Z" fill="black"/>
</g>
<defs>
<linearGradient id="paint0_linear" x1="61.7308" y1="-42.5" x2="330.785" y2="99.1848" gradientUnits="userSpaceOnUse">
<stop stop-color="#F3FFA8"/>
<stop offset="1" stop-color="#F3FFA8" stop-opacity="0"/>
</linearGradient>
</defs>
</svg>
