<svg width="24" height="24" viewBox="0 0 24 24" fill="none" xmlns="http://www.w3.org/2000/svg">
<path fill-rule="evenodd" clip-rule="evenodd" d="M20.9064 5.44408L21.9039 8.64576C22.0845 9.36781 22.113 10.5934 21.0489 11.6574V11.6815C19.6161 12.1729 18.3636 11.7954 17.6036 11.0353C17.4276 10.8594 17.1491 10.8396 16.95 10.9889C15.964 11.7284 15.159 11.9334 14.5207 11.8802C13.8793 11.8268 13.324 11.5058 12.8536 11.0353C12.6666 10.8483 12.3663 10.8393 12.1684 11.0147C11.3366 11.7518 10.4974 11.8919 9.78077 11.7885C9.04181 11.6819 8.41695 11.3119 8.08162 11.0147C7.8837 10.8393 7.58344 10.8483 7.39645 11.0353C6.4389 11.9929 5.54962 12.1779 4.82004 12.0215C4.50871 11.9548 4.20888 11.8221 3.93049 11.6395C3.92914 11.6382 3.92773 11.6368 3.92624 11.6353C3.75369 11.4642 2.68273 10.4023 3.09287 8.64576L4.09043 5.44408C4.28994 4.59853 5.04048 4 5.89553 4H19.0918C19.9563 4 20.6974 4.58903 20.9064 5.44408ZM3.94792 12.7843V19.2009C3.94792 20.2459 4.80297 21.101 5.84803 21.101H19.1488C20.1938 21.101 21.0489 20.2459 21.0489 19.2009V12.7267C19.5745 13.1295 18.1975 12.8139 17.2143 12.027C16.217 12.6934 15.2879 12.9476 14.4376 12.8767C13.6657 12.8124 13.0131 12.4847 12.4807 12.0464C11.5172 12.7514 10.5162 12.905 9.63798 12.7783C8.89319 12.6708 8.24585 12.3643 7.77961 12.0438C6.72331 12.9548 5.62407 13.2165 4.61051 12.9993C4.38052 12.95 4.15928 12.877 3.94792 12.7843ZM15.3106 5.90011H13.4485V9.40581C13.4485 10.0898 13.971 10.6504 14.6075 10.6504C15.4531 10.6504 15.9091 9.91884 15.8236 9.2443L15.3106 5.90011ZM6.06654 10.6504C6.64608 10.6504 7.1401 10.1849 7.21611 9.56732L7.76714 5.90011H5.89553L4.93598 9.09229C4.78397 9.72883 5.18299 10.6504 6.06654 10.6504ZM10.3228 10.6504C11.0258 10.6504 11.5484 10.0898 11.5484 9.40581V5.90011H9.68625L9.16372 9.2443C9.08771 9.98534 9.61024 10.6504 10.3228 10.6504ZM17.7807 9.56732C17.8472 10.1849 18.3507 10.6504 18.9303 10.6504C19.8233 10.6504 20.2128 9.72883 20.0608 9.09229L19.0633 5.89061L17.2297 5.90011L17.7807 9.56732Z" fill="#FF701D"/>
</svg>
