<svg width="143" height="16" viewBox="0 0 143 16" fill="none" xmlns="http://www.w3.org/2000/svg">
<path d="M12.976 0.624V15.408H10.864V0.624H12.976ZM1.072 7.472C1.616 7.33333 2.09067 7.14667 2.496 6.912C2.90133 6.67733 3.24267 6.41067 3.52 6.112C3.808 5.80267 4.02667 5.472 4.176 5.12C4.32533 4.768 4.416 4.41067 4.448 4.048H1.504V2.368H4.464V0.768H6.592V2.368H9.584V4.048H6.608C6.64 4.4 6.73067 4.74667 6.88 5.088C7.04 5.41867 7.25867 5.728 7.536 6.016C7.81333 6.304 8.15467 6.56533 8.56 6.8C8.96533 7.024 9.44 7.20533 9.984 7.344L9.056 8.944C8.192 8.73067 7.472 8.4 6.896 7.952C6.33067 7.49333 5.88267 6.96 5.552 6.352C5.22133 6.992 4.76267 7.552 4.176 8.032C3.6 8.50133 2.88 8.85333 2.016 9.088L1.072 7.472ZM6.592 10.8C7.2 10.7573 7.78667 10.7093 8.352 10.656C8.91733 10.6027 9.488 10.5333 10.064 10.448L10.192 11.984C9.40267 12.144 8.59733 12.272 7.776 12.368C6.96533 12.4533 6.16 12.5173 5.36 12.56C4.57067 12.6027 3.808 12.6293 3.072 12.64C2.336 12.6507 1.65333 12.656 1.024 12.656L0.752 10.944C1.296 10.944 1.88267 10.944 2.512 10.944C3.14133 10.9333 3.792 10.9173 4.464 10.896V8.656H6.592V10.8ZM28.5908 7.168V8.848H15.2468V7.168H24.5908C24.7508 6.336 24.8521 5.6 24.8948 4.96C24.9374 4.32 24.9588 3.712 24.9588 3.136H16.8948V1.456H27.0388V2.736C27.0388 3.376 27.0228 4.048 26.9908 4.752C26.9694 5.456 26.8734 6.26133 26.7028 7.168H28.5908ZM19.0388 13.44H27.4388V15.12H16.9268V10.128H19.0388V13.44ZM46.9505 8.064H44.8065V15.376H42.6945V0.639999H44.8065V6.304H46.9505V8.064ZM38.6945 3.92C38.6945 4.58133 38.7585 5.23733 38.8865 5.888C39.0252 6.53867 39.2332 7.152 39.5105 7.728C39.7878 8.304 40.1398 8.82667 40.5665 9.296C41.0038 9.75467 41.5158 10.128 42.1025 10.416L40.8225 12.08C40.0545 11.6853 39.4092 11.152 38.8865 10.48C38.3638 9.808 37.9478 9.01867 37.6385 8.112C37.3185 9.05067 36.8758 9.89333 36.3105 10.64C35.7558 11.376 35.0625 11.9467 34.2305 12.352L32.9665 10.64C33.5852 10.352 34.1185 9.968 34.5665 9.488C35.0252 9.008 35.3985 8.46933 35.6865 7.872C35.9852 7.27467 36.2038 6.64 36.3425 5.968C36.4918 5.28533 36.5665 4.60267 36.5665 3.92V1.776H38.6945V3.92ZM60.0693 11.296H57.9413V0.639999H60.0693V11.296ZM55.9413 9.472C55.1093 9.216 54.4159 8.84267 53.8613 8.352C53.3066 7.85067 52.8586 7.264 52.5173 6.592C52.1866 7.328 51.7279 7.968 51.1413 8.512C50.5546 9.04533 49.8293 9.45067 48.9653 9.728L47.8933 8.08C48.5013 7.888 49.0239 7.632 49.4613 7.312C49.9093 6.98133 50.2773 6.61333 50.5653 6.208C50.8533 5.80267 51.0666 5.37067 51.2053 4.912C51.3439 4.45333 51.4133 3.99467 51.4133 3.536V3.36H48.4533V1.696H56.4693V3.36H53.5573V3.536C53.5573 3.96267 53.6266 4.39467 53.7653 4.832C53.9039 5.25867 54.1119 5.664 54.3893 6.048C54.6773 6.432 55.0399 6.784 55.4773 7.104C55.9146 7.41333 56.4266 7.664 57.0133 7.856L55.9413 9.472ZM60.4373 13.44V15.12H50.2613V10.336H52.3733V13.44H60.4373ZM78.477 3.824H66.493V2.176H71.453V0.624H73.565V2.176H78.477V3.824ZM67.469 6.944C67.469 6.13333 67.9117 5.50933 68.797 5.072C69.693 4.624 70.9303 4.4 72.509 4.4C74.0877 4.4 75.325 4.624 76.221 5.072C77.117 5.50933 77.565 6.13333 77.565 6.944C77.565 7.75467 77.117 8.37867 76.221 8.816C75.325 9.25333 74.0877 9.472 72.509 9.472C70.9303 9.472 69.693 9.25333 68.797 8.816C67.9117 8.37867 67.469 7.75467 67.469 6.944ZM75.373 6.944C75.373 6.60267 75.1383 6.35733 74.669 6.208C74.1997 6.048 73.4797 5.968 72.509 5.968C71.5383 5.968 70.8183 6.048 70.349 6.208C69.8903 6.35733 69.661 6.60267 69.661 6.944C69.661 7.584 70.6103 7.904 72.509 7.904C74.4183 7.904 75.373 7.584 75.373 6.944ZM79.197 11.872H73.565V15.392H71.453V11.872H65.853V10.176H79.197V11.872ZM92.6837 0.624V15.36H90.5557V0.624H92.6837ZM88.2997 2.16C88.2997 3.28 88.1931 4.352 87.9797 5.376C87.7664 6.4 87.3984 7.36533 86.8757 8.272C86.3637 9.168 85.6757 10.0053 84.8117 10.784C83.9477 11.552 82.8597 12.2507 81.5477 12.88L80.4437 11.216C81.3824 10.768 82.1931 10.288 82.8757 9.776C83.5584 9.25333 84.1291 8.688 84.5877 8.08C85.0464 7.472 85.3984 6.816 85.6437 6.112C85.8997 5.408 86.0651 4.65067 86.1397 3.84H81.2277V2.16H88.2997Z" fill="black"/>
<path d="M102.669 2.16H106.557C107.207 2.16 107.815 2.224 108.381 2.352C108.946 2.46933 109.437 2.672 109.853 2.96C110.269 3.248 110.594 3.632 110.829 4.112C111.074 4.58133 111.197 5.168 111.197 5.872C111.197 6.544 111.074 7.13067 110.829 7.632C110.594 8.12267 110.269 8.528 109.853 8.848C109.447 9.168 108.967 9.408 108.413 9.568C107.858 9.71733 107.261 9.792 106.621 9.792H105.037V14H102.669V2.16ZM106.461 7.92C108.071 7.92 108.877 7.23733 108.877 5.872C108.877 5.168 108.669 4.688 108.253 4.432C107.837 4.16533 107.213 4.032 106.381 4.032H105.037V7.92H106.461ZM113.18 2.16H115.548V14H113.18V2.16ZM123.134 14.224C122.387 14.224 121.683 14.0907 121.022 13.824C120.36 13.5573 119.784 13.168 119.294 12.656C118.803 12.144 118.414 11.5093 118.126 10.752C117.848 9.99467 117.71 9.12 117.71 8.128C117.71 7.14667 117.854 6.27733 118.142 5.52C118.44 4.752 118.84 4.10133 119.342 3.568C119.843 3.03467 120.424 2.62933 121.086 2.352C121.758 2.07467 122.467 1.936 123.214 1.936C123.982 1.936 124.654 2.09067 125.23 2.4C125.816 2.69867 126.302 3.05067 126.686 3.456L125.438 4.96C125.139 4.672 124.814 4.43733 124.462 4.256C124.11 4.064 123.71 3.968 123.262 3.968C122.814 3.968 122.398 4.064 122.014 4.256C121.63 4.43733 121.299 4.704 121.022 5.056C120.744 5.408 120.526 5.83467 120.366 6.336C120.206 6.83733 120.126 7.408 120.126 8.048C120.126 9.33867 120.403 10.352 120.958 11.088C121.523 11.8133 122.275 12.176 123.214 12.176C123.726 12.176 124.179 12.0693 124.574 11.856C124.979 11.632 125.342 11.3493 125.662 11.008L126.91 12.48C125.939 13.6427 124.68 14.224 123.134 14.224ZM128.657 2.16H131.025V7.296H131.073L134.993 2.16H137.601L133.985 6.816L138.241 14H135.633L132.577 8.688L131.025 10.672V14H128.657V2.16ZM141.738 10.608H140.202L139.866 4.064L139.786 1.84H142.154L142.074 4.064L141.738 10.608ZM142.154 14.224H139.818V11.952H142.154V14.224Z" fill="#FFA14F"/>
</svg>
