<svg width="24" height="24" viewBox="0 0 24 24" fill="none" xmlns="http://www.w3.org/2000/svg">
<path d="M20.9064 5.44408L20.4207 5.56281C20.4232 5.5729 20.4259 5.5829 20.429 5.59282L20.9064 5.44408ZM21.9039 8.64576L22.389 8.5245C22.3867 8.51527 22.3841 8.50611 22.3813 8.49703L21.9039 8.64576ZM4.09043 5.44408L4.5678 5.59282C4.57128 5.58163 4.57438 5.57032 4.57707 5.55891L4.09043 5.44408ZM3.09287 8.64576L2.61551 8.49703C2.61191 8.50859 2.60872 8.52028 2.60597 8.53207L3.09287 8.64576ZM3.92624 11.6353L3.57418 11.9904H3.57418L3.92624 11.6353ZM3.94792 11.6574H4.44792C4.44792 11.5405 4.40691 11.4272 4.33202 11.3373L3.94792 11.6574ZM21.0489 11.6574L20.6953 11.3039C20.6016 11.3977 20.5489 11.5248 20.5489 11.6574H21.0489ZM7.75 10.5278L8.08162 10.1536C7.8837 9.97818 7.58344 9.98723 7.39645 10.1742L7.75 10.5278ZM12.5 10.5278L12.8536 10.1742C12.6666 9.98723 12.3663 9.97818 12.1684 10.1536L12.5 10.5278ZM17.25 10.5278L17.6036 10.1742C17.4276 9.99828 17.1491 9.97848 16.95 10.1278L17.25 10.5278ZM20.429 5.59282L21.4266 8.7945L22.3813 8.49703L21.3838 5.29535L20.429 5.59282ZM19.0918 4.5C19.7204 4.5 20.2651 4.92622 20.4207 5.56281L21.3921 5.32536C21.1297 4.25185 20.1922 3.5 19.0918 3.5V4.5ZM5.89553 4.5H19.0918V3.5H5.89553V4.5ZM4.57707 5.55891C4.72425 4.93513 5.27642 4.5 5.89553 4.5V3.5C4.80455 3.5 3.85563 4.26194 3.60379 5.32926L4.57707 5.55891ZM3.57024 8.7945L4.5678 5.59282L3.61306 5.29535L2.61551 8.49703L3.57024 8.7945ZM4.2783 11.2803C4.13074 11.134 3.23271 10.2458 3.57978 8.75946L2.60597 8.53207C2.13274 10.5587 3.37664 11.7945 3.57418 11.9904L4.2783 11.2803ZM4.33202 11.3373C4.31499 11.3169 4.29778 11.2998 4.29597 11.2979C4.29007 11.292 4.28324 11.2852 4.2783 11.2803L3.57418 11.9904C3.57711 11.9933 3.5793 11.9954 3.5812 11.9973C3.58312 11.9993 3.58409 12.0002 3.58449 12.0006C3.58506 12.0012 3.58376 11.9999 3.58149 11.9975C3.58029 11.9962 3.57822 11.994 3.57561 11.9911C3.57315 11.9884 3.56894 11.9837 3.56382 11.9775L4.33202 11.3373ZM4.44792 19.2009V11.6574H3.44792V19.2009H4.44792ZM5.84803 20.601C5.07911 20.601 4.44792 19.9698 4.44792 19.2009H3.44792C3.44792 20.5221 4.52683 21.601 5.84803 21.601V20.601ZM19.1488 20.601H5.84803V21.601H19.1488V20.601ZM20.5489 19.2009C20.5489 19.9698 19.9177 20.601 19.1488 20.601V21.601C20.47 21.601 21.5489 20.5221 21.5489 19.2009H20.5489ZM20.5489 11.6574V19.2009H21.5489V11.6574H20.5489ZM21.4189 8.76703C21.5722 9.38022 21.5961 10.4031 20.6953 11.3039L21.4024 12.011C22.6298 10.7836 22.5967 9.35539 22.389 8.5245L21.4189 8.76703ZM3.17349 11.4685C3.81529 11.9478 4.60602 12.2575 5.47885 12.204C6.35568 12.1504 7.25058 11.7343 8.10355 10.8813L7.39645 10.1742C6.67873 10.8919 6.00294 11.1701 5.41776 11.2059C4.82858 11.242 4.26599 11.0363 3.77184 10.6673L3.17349 11.4685ZM7.41838 10.902C7.87471 11.3064 8.67486 11.7782 9.63798 11.9171C10.6234 12.0593 11.7634 11.8486 12.8316 10.902L12.1684 10.1536C11.3366 10.8907 10.4974 11.0308 9.78077 10.9274C9.0418 10.8208 8.41695 10.4507 8.08162 10.1536L7.41838 10.902ZM12.1464 10.8813C12.7315 11.4664 13.4957 11.9371 14.4376 12.0156C15.3826 12.0944 16.4249 11.7716 17.55 10.9278L16.95 10.1278C15.964 10.8673 15.159 11.0723 14.5207 11.0191C13.8793 10.9656 13.324 10.6447 12.8536 10.1742L12.1464 10.8813ZM16.8964 10.8813C17.9956 11.9805 19.7552 12.4087 21.6094 11.6792L21.2432 10.7486C19.7327 11.343 18.4016 10.9722 17.6036 10.1742L16.8964 10.8813Z" fill="#555555"/>
</svg>
