<svg width="41" height="16" viewBox="0 0 41 16" fill="none" xmlns="http://www.w3.org/2000/svg">
<rect width="41" height="16" rx="5" fill="url(#paint0_linear)"/>
<path d="M10.4125 3.67H11.3725L14.0425 8.29L14.8225 9.8H14.8725C14.8458 9.42 14.8192 9.03333 14.7925 8.64C14.7658 8.24667 14.7525 7.86 14.7525 7.48V3.67H15.6325V11H14.6825L12.0125 6.37L11.2225 4.86H11.1825C11.2025 5.24 11.2258 5.62 11.2525 6C11.2792 6.38 11.2925 6.76333 11.2925 7.15V11H10.4125V3.67ZM17.7793 3.67H22.0093V4.45H18.7093V6.75H21.4893V7.54H18.7093V10.21H22.1193V11H17.7793V3.67ZM23.0582 3.67H24.0182L24.7882 7.66C24.8615 8.06 24.9315 8.45667 24.9982 8.85C25.0715 9.23667 25.1449 9.63 25.2182 10.03H25.2582C25.3449 9.63 25.4315 9.23667 25.5182 8.85C25.6049 8.45667 25.6949 8.06 25.7882 7.66L26.7982 3.67H27.6382L28.6682 7.66C28.7615 8.06 28.8482 8.45667 28.9282 8.85C29.0149 9.23667 29.1015 9.63 29.1882 10.03H29.2382C29.3782 9.23 29.5182 8.44 29.6582 7.66L30.4282 3.67H31.3182L29.7982 11H28.6882L27.5782 6.58C27.5115 6.28 27.4482 5.99667 27.3882 5.73C27.3349 5.46333 27.2782 5.19 27.2182 4.91H27.1782C27.1182 5.19 27.0549 5.46333 26.9882 5.73C26.9282 5.99667 26.8682 6.28 26.8082 6.58L25.7182 11H24.6182L23.0582 3.67Z" fill="white"/>
<defs>
<linearGradient id="paint0_linear" x1="36.4463" y1="25.8498" x2="-17.86" y2="10.9591" gradientUnits="userSpaceOnUse">
<stop stop-color="#FFA14F"/>
<stop offset="1" stop-color="#FF5208"/>
</linearGradient>
</defs>
</svg>
