<svg width="332" height="84" viewBox="0 0 332 84" fill="none" xmlns="http://www.w3.org/2000/svg">
<g filter="url(#filter0_d)">
<rect x="10" y="6" width="312" height="64" rx="15" fill="url(#paint0_linear)"/>
<circle cx="291" cy="38" r="15" fill="white"/>
<path d="M35.504 37.2C33.168 36.624 32.144 35.152 32.096 33.712H35.008V32.048H32.096V30.592H29.984V32.048H27.104V33.712H29.984C29.936 35.28 28.896 36.816 26.576 37.44L27.552 39.088C29.248 38.624 30.416 37.616 31.072 36.336C31.744 37.488 32.88 38.384 34.56 38.832L35.504 37.2ZM38.48 41.328V39.664H28.608V41.328H32.304C31.936 42.416 30.544 43.44 27.968 43.728L28.72 45.328C31.072 45.024 32.704 44.112 33.552 42.864C34.384 44.112 36.016 45.056 38.352 45.344L39.12 43.744C36.576 43.44 35.168 42.384 34.768 41.328H38.48ZM38.288 33.936V30.64H36.176V39.024H38.288V35.68H40.24V33.936H38.288ZM53.2308 34.624H45.1188V31.168H43.0067V36.304H53.2308V34.624ZM44.9907 40.672H42.8627V45.056H53.3108V43.376H44.9907V40.672ZM41.3587 37.808V39.504H54.7028V37.808H41.3587ZM60.1377 41.904V43.632H73.4817V41.904H60.1377ZM61.5457 31.6V39.456H72.0257V31.6H69.9457V33.984H63.6417V31.6H61.5457ZM63.6417 35.632H69.9457V37.776H63.6417V35.632ZM84.1845 36.528H85.3685V41.568H87.3685V30.64H85.3685V34.832H84.1845V30.912H82.2165V41.28H84.1845V36.528ZM81.5285 37.568C80.2005 37.808 79.0005 37.888 77.4325 37.904V36.432H80.9685V31.84H75.3845V33.488H78.9365V34.896H75.4005V39.568H76.4245C78.5845 39.568 80.0405 39.52 81.7045 39.232L81.5285 37.568ZM79.5605 43.44V40.56H77.4485V45.12H87.7365V43.44H79.5605ZM101.399 37.44H93.1432V33.568H101.287V31.856H91.0312V39.12H101.399V37.44ZM89.4792 41.888V43.616H102.823V41.888H89.4792ZM104.822 32.144V33.856H109.638C109.254 37.12 107.43 39.456 104.006 41.216L105.19 42.832C110.086 40.352 111.766 36.56 111.766 32.144H104.822ZM117.75 36.256H115.686V30.624H113.574V45.344H115.686V38H117.75V36.256ZM125.137 34.656C125.137 33.568 125.921 32.928 126.993 32.928C128.081 32.928 128.865 33.568 128.865 34.656C128.865 35.76 128.081 36.4 126.993 36.4C125.921 36.4 125.137 35.76 125.137 34.656ZM133.137 35.504V38.432H135.249V30.64H133.137V33.792H130.769C130.369 32.224 128.881 31.184 126.993 31.184C124.785 31.184 123.121 32.64 123.121 34.656C123.121 36.688 124.785 38.144 126.993 38.144C128.881 38.144 130.385 37.088 130.785 35.504H133.137ZM127.985 43.632H126.497V42.24H127.985V43.632ZM134.289 39.152H132.209V40.256C132.209 41.584 131.537 42.944 129.921 43.696V39.28H127.985V40.72H126.497V39.28H124.545V45.2H129.921V44.096L130.753 45.36C131.937 44.896 132.737 44.064 133.217 43.056C133.697 44.08 134.513 44.912 135.745 45.36L136.785 43.792C134.993 43.168 134.289 41.776 134.289 40.256V39.152ZM140.272 33.712H145.04V32H138.176V41.872H139.424C141.984 41.872 144 41.792 146.224 41.392L146.016 39.648C144.112 39.968 142.368 40.08 140.272 40.112V33.712ZM151.28 36.08H149.136V30.64H147.024V45.408H149.136V37.824H151.28V36.08ZM157.758 37.36H154.958V33.472H157.758V37.36ZM162.478 34.64V36.128H159.822V34.64H162.478ZM159.822 37.808H162.478V41.376H164.59V30.64H162.478V32.96H159.822V31.824H152.878V39.024H159.822V37.808ZM156.974 43.44V40.368H154.862V45.12H164.91V43.44H156.974ZM173.193 34.4C173.193 33.376 173.977 32.752 175.081 32.752C176.185 32.752 176.969 33.376 176.969 34.4C176.969 35.44 176.185 36.064 175.081 36.064C173.977 36.064 173.193 35.44 173.193 34.4ZM179.001 34.4C179.001 32.464 177.337 31.056 175.081 31.056C172.841 31.056 171.161 32.464 171.161 34.4C171.161 36.368 172.841 37.76 175.081 37.76C177.337 37.76 179.001 36.368 179.001 34.4ZM175.033 42.608H182.649V38.576H172.921V40.208H180.569V41.088H172.937V45.2H183.081V43.568H175.033V42.608ZM182.649 33.472V30.64H180.537V38H182.649V35.2H184.585V33.472H182.649ZM188.312 37.568H192.776V31.872H186.2V33.552H190.696V35.904H186.232V42.128H187.416C189.624 42.128 191.496 42.08 193.672 41.744L193.512 40.016C191.672 40.288 190.088 40.368 188.312 40.384V37.568ZM195.928 30.624V33.76H193.512V35.456H195.928V37.76H193.48V39.456H195.928V45.408H198.056V30.624H195.928ZM201.799 37.936C204.375 37.584 206.183 36.48 207.063 34.976C207.943 36.48 209.751 37.584 212.327 37.936L213.079 36.288C210.087 35.92 208.535 34.48 208.327 33.072H212.503V31.392H201.575V33.072H205.815C205.607 34.48 204.039 35.92 201.031 36.288L201.799 37.936ZM213.719 38.784H200.407V40.464H205.959V45.408H208.071V40.464H213.719V38.784ZM219.766 31.92H217.734V34.4C217.734 36.912 216.95 39.552 214.79 40.864L216.054 42.448C217.382 41.648 218.246 40.24 218.758 38.608C219.222 40.096 220.006 41.344 221.254 42.112L222.406 40.48C220.406 39.152 219.766 36.704 219.766 34.32V31.92ZM222.71 35.616H220.854V37.328H222.71V44.72H224.678V30.88H222.71V35.616ZM225.702 30.64V45.376H227.702V30.64H225.702ZM234.772 39.136C235.284 39.232 235.812 39.28 236.388 39.28C236.964 39.28 237.508 39.232 238.02 39.136V41.952H234.772V39.136ZM236.388 33.024C238.436 33.024 239.812 33.856 239.812 35.328C239.812 36.784 238.436 37.632 236.388 37.632C234.34 37.632 232.98 36.784 232.98 35.328C232.98 33.856 234.34 33.024 236.388 33.024ZM240.116 41.952V38.352C241.22 37.664 241.892 36.608 241.892 35.328C241.892 32.912 239.572 31.36 236.388 31.36C233.22 31.36 230.9 32.912 230.9 35.328C230.884 36.608 231.556 37.664 232.676 38.352V41.952H229.732V43.664H243.076V41.952H240.116ZM244.627 42.88C244.627 42.3893 244.761 42.048 245.027 41.856C245.294 41.6533 245.619 41.552 246.003 41.552C246.377 41.552 246.697 41.6533 246.963 41.856C247.23 42.048 247.363 42.3893 247.363 42.88C247.363 43.3493 247.23 43.6907 246.963 43.904C246.697 44.1067 246.377 44.208 246.003 44.208C245.619 44.208 245.294 44.1067 245.027 43.904C244.761 43.6907 244.627 43.3493 244.627 42.88Z" fill="white"/>
<path d="M284 39L295.17 39L290.29 43.88C289.9 44.27 289.9 44.91 290.29 45.3C290.68 45.69 291.31 45.69 291.7 45.3L298.29 38.71C298.68 38.32 298.68 37.69 298.29 37.3L291.7 30.71C291.31 30.32 290.68 30.32 290.29 30.71C289.9 31.1 289.9 31.73 290.29 32.12L295.17 37L284 37C283.45 37 283 37.45 283 38C283 38.55 283.45 39 284 39Z" fill="url(#paint1_linear)"/>
</g>
<defs>
<filter id="filter0_d" x="0" y="0" width="332" height="84" filterUnits="userSpaceOnUse" color-interpolation-filters="sRGB">
<feFlood flood-opacity="0" result="BackgroundImageFix"/>
<feColorMatrix in="SourceAlpha" type="matrix" values="0 0 0 0 0 0 0 0 0 0 0 0 0 0 0 0 0 0 127 0"/>
<feOffset dy="4"/>
<feGaussianBlur stdDeviation="5"/>
<feColorMatrix type="matrix" values="0 0 0 0 1 0 0 0 0 0.631373 0 0 0 0 0.309804 0 0 0 0.3 0"/>
<feBlend mode="normal" in2="BackgroundImageFix" result="effect1_dropShadow"/>
<feBlend mode="normal" in="SourceGraphic" in2="effect1_dropShadow" result="shape"/>
</filter>
<linearGradient id="paint0_linear" x1="287.348" y1="109.399" x2="-61.9361" y2="-72.8029" gradientUnits="userSpaceOnUse">
<stop stop-color="#FFA14F"/>
<stop offset="1" stop-color="#FF5208"/>
</linearGradient>
<linearGradient id="paint1_linear" x1="284.731" y1="21.0756" x2="306.657" y2="23.4849" gradientUnits="userSpaceOnUse">
<stop stop-color="#FFA14F"/>
<stop offset="1" stop-color="#FF5208"/>
</linearGradient>
</defs>
</svg>
