<svg width="108" height="16" viewBox="0 0 108 16" fill="none" xmlns="http://www.w3.org/2000/svg">
<path d="M7.344 7.024C6.55467 7.024 5.83467 6.95467 5.184 6.816C4.53333 6.66667 3.97333 6.464 3.504 6.208C3.04533 5.94133 2.688 5.62133 2.432 5.248C2.176 4.864 2.048 4.43733 2.048 3.968C2.048 3.49867 2.176 3.07733 2.432 2.704C2.688 2.33067 3.04533 2.01067 3.504 1.744C3.97333 1.47733 4.53333 1.27467 5.184 1.136C5.83467 0.986666 6.55467 0.912 7.344 0.912C8.144 0.912 8.86933 0.986666 9.52 1.136C10.1707 1.27467 10.7253 1.47733 11.184 1.744C11.6533 2.01067 12.0107 2.33067 12.256 2.704C12.512 3.07733 12.64 3.49867 12.64 3.968C12.64 4.43733 12.512 4.864 12.256 5.248C12.0107 5.62133 11.6533 5.94133 11.184 6.208C10.7253 6.464 10.1707 6.66667 9.52 6.816C8.86933 6.95467 8.144 7.024 7.344 7.024ZM7.344 2.592C6.40533 2.592 5.66933 2.70933 5.136 2.944C4.60267 3.168 4.336 3.50933 4.336 3.968C4.336 4.42667 4.60267 4.77333 5.136 5.008C5.66933 5.232 6.40533 5.344 7.344 5.344C8.28267 5.344 9.01867 5.232 9.552 5.008C10.096 4.77333 10.368 4.42667 10.368 3.968C10.368 3.50933 10.096 3.168 9.552 2.944C9.01867 2.70933 8.28267 2.592 7.344 2.592ZM14.032 7.792V9.472H8.56V12H6.4V9.472H0.688V7.792H14.032ZM4.384 13.44H12.576V15.12H2.24V10.704H4.384V13.44ZM28.5908 7.568V9.248H15.2628V7.568H20.8628V6.352H16.8788V1.264H26.9908V2.944H18.9748V4.672H27.0708V6.352H22.9748V7.568H28.5908ZM21.8708 9.968C23.4601 9.968 24.7081 10.2027 25.6148 10.672C26.5321 11.1413 26.9908 11.8133 26.9908 12.688C26.9908 13.552 26.5321 14.2187 25.6148 14.688C24.7081 15.1573 23.4601 15.392 21.8708 15.392C20.2814 15.392 19.0334 15.1573 18.1268 14.688C17.2201 14.2187 16.7668 13.552 16.7668 12.688C16.7668 11.8133 17.2201 11.1413 18.1268 10.672C19.0334 10.2027 20.2814 9.968 21.8708 9.968ZM21.8708 13.792C22.8734 13.792 23.6201 13.7067 24.1108 13.536C24.6014 13.3547 24.8468 13.072 24.8468 12.688C24.8468 11.9413 23.8548 11.568 21.8708 11.568C19.8868 11.568 18.8948 11.9413 18.8948 12.688C18.8948 13.072 19.1401 13.3547 19.6308 13.536C20.1214 13.7067 20.8681 13.792 21.8708 13.792ZM42.1415 0.624V15.408H40.0135V7.648H37.7095V5.936H40.0135V0.624H42.1415ZM32.3975 10.272C33.4002 10.2613 34.3388 10.2293 35.2135 10.176C36.0882 10.112 36.9948 10.0053 37.9335 9.856L38.1255 11.568C37.0375 11.7387 35.9708 11.856 34.9255 11.92C33.8802 11.9733 32.7495 12 31.5335 12H30.3175V5.76H34.8295V3.568H30.2855V1.888H36.9255V7.408H32.3975V10.272ZM56.6523 0.624V15.408H54.5403V0.624H56.6523ZM49.1003 1.616C49.6763 1.616 50.2096 1.70667 50.7003 1.888C51.2016 2.06933 51.6336 2.32 51.9963 2.64C52.3589 2.96 52.6416 3.344 52.8443 3.792C53.0576 4.22933 53.1643 4.71467 53.1643 5.248C53.1643 5.77067 53.0576 6.256 52.8443 6.704C52.6416 7.152 52.3589 7.536 51.9963 7.856C51.6336 8.176 51.2016 8.42667 50.7003 8.608C50.2096 8.78933 49.6763 8.88 49.1003 8.88C48.5243 8.88 47.9856 8.78933 47.4843 8.608C46.9936 8.42667 46.5669 8.176 46.2043 7.856C45.8523 7.536 45.5696 7.152 45.3563 6.704C45.1536 6.256 45.0523 5.77067 45.0523 5.248C45.0523 4.71467 45.1536 4.22933 45.3563 3.792C45.5696 3.344 45.8523 2.96 46.2043 2.64C46.5669 2.32 46.9936 2.06933 47.4843 1.888C47.9856 1.70667 48.5243 1.616 49.1003 1.616ZM49.1003 3.424C48.5243 3.424 48.0443 3.584 47.6603 3.904C47.2869 4.224 47.1003 4.672 47.1003 5.248C47.1003 5.824 47.2869 6.272 47.6603 6.592C48.0443 6.912 48.5243 7.072 49.1003 7.072C49.6763 7.072 50.1509 6.912 50.5243 6.592C50.9083 6.272 51.1003 5.824 51.1003 5.248C51.1003 4.672 50.9083 4.224 50.5243 3.904C50.1509 3.584 49.6763 3.424 49.1003 3.424ZM44.4283 10.704C45.0789 10.704 45.7829 10.704 46.5403 10.704C47.2976 10.6933 48.0816 10.672 48.8923 10.64C49.7029 10.608 50.5189 10.56 51.3403 10.496C52.1616 10.432 52.9616 10.3413 53.7403 10.224L53.8683 11.744C53.0789 11.904 52.2736 12.032 51.4523 12.128C50.6416 12.2133 49.8416 12.2773 49.0523 12.32C48.2629 12.3627 47.5003 12.3893 46.7643 12.4C46.0283 12.4107 45.3403 12.416 44.7003 12.416L44.4283 10.704ZM93.0357 3.824H81.0517V2.176H86.0117V0.624H88.1237V2.176H93.0357V3.824ZM82.0277 6.944C82.0277 6.13333 82.4704 5.50933 83.3557 5.072C84.2517 4.624 85.4891 4.4 87.0677 4.4C88.6464 4.4 89.8837 4.624 90.7797 5.072C91.6757 5.50933 92.1237 6.13333 92.1237 6.944C92.1237 7.75467 91.6757 8.37867 90.7797 8.816C89.8837 9.25333 88.6464 9.472 87.0677 9.472C85.4891 9.472 84.2517 9.25333 83.3557 8.816C82.4704 8.37867 82.0277 7.75467 82.0277 6.944ZM89.9317 6.944C89.9317 6.60267 89.6971 6.35733 89.2277 6.208C88.7584 6.048 88.0384 5.968 87.0677 5.968C86.0971 5.968 85.3771 6.048 84.9077 6.208C84.4491 6.35733 84.2197 6.60267 84.2197 6.944C84.2197 7.584 85.1691 7.904 87.0677 7.904C88.9771 7.904 89.9317 7.584 89.9317 6.944ZM93.7557 11.872H88.1237V15.392H86.0117V11.872H80.4117V10.176H93.7557V11.872ZM107.243 0.624V15.36H105.115V0.624H107.243ZM102.859 2.16C102.859 3.28 102.752 4.352 102.539 5.376C102.325 6.4 101.957 7.36533 101.435 8.272C100.923 9.168 100.235 10.0053 99.3705 10.784C98.5065 11.552 97.4185 12.2507 96.1065 12.88L95.0025 11.216C95.9412 10.768 96.7518 10.288 97.4345 9.776C98.1172 9.25333 98.6878 8.688 99.1465 8.08C99.6052 7.472 99.9572 6.816 100.203 6.112C100.459 5.408 100.624 4.65067 100.699 3.84H95.7865V2.16H102.859Z" fill="black"/>
<path d="M74.964 11.504H72.836V0.639999H74.964V11.504ZM71.444 9.456C70.9213 9.17867 70.4893 8.82133 70.148 8.384C69.8173 7.936 69.5613 7.44 69.38 6.896C69.1987 7.45067 68.9427 7.96267 68.612 8.432C68.2813 8.90133 67.844 9.28533 67.3 9.584C66.756 9.28533 66.3187 8.90667 65.988 8.448C65.668 7.97867 65.4173 7.472 65.236 6.928C65.0547 7.472 64.7933 7.96267 64.452 8.4C64.1213 8.82667 63.7 9.17867 63.188 9.456L62.1 7.92C62.516 7.696 62.8573 7.424 63.124 7.104C63.4013 6.784 63.62 6.43733 63.78 6.064C63.9507 5.68 64.068 5.28 64.132 4.864C64.2067 4.43733 64.244 4.01067 64.244 3.584V3.44H62.66V1.744H67.028V3.44H66.212V3.584C66.212 4.192 66.2813 4.82133 66.42 5.472C66.5587 6.112 66.852 6.704 67.3 7.248C67.748 6.704 68.0413 6.112 68.18 5.472C68.3187 4.82133 68.388 4.192 68.388 3.584V3.44H67.604V1.744H71.828V3.44H70.388V3.584C70.388 4.01067 70.42 4.43733 70.484 4.864C70.5587 5.28 70.676 5.68 70.836 6.064C70.996 6.43733 71.2147 6.784 71.492 7.104C71.7693 7.424 72.116 7.696 72.532 7.92L71.444 9.456ZM75.284 13.44V15.12H64.724V10.48H66.836V13.44H75.284Z" fill="#FF5208"/>
</svg>
