<svg width="24" height="24" viewBox="0 0 24 24" fill="none" xmlns="http://www.w3.org/2000/svg">
<mask id="path-1-inside-1" fill="white">
<path fill-rule="evenodd" clip-rule="evenodd" d="M7 4C5.34315 4 4 5.34315 4 7V15C4 16.6569 5.34315 18 7 18H15L16.6 19.6L17.2929 20.2929C17.9229 20.9229 19 20.4767 19 19.5858V17.8293C20.1652 17.4175 21 16.3062 21 15V7C21 5.34315 19.6569 4 18 4H7Z"/>
</mask>
<path d="M15 18L15.7071 17.2929L15.4142 17H15V18ZM16.6 19.6L15.8929 20.3071L16.6 19.6ZM17.2929 20.2929L18 19.5858V19.5858L17.2929 20.2929ZM19 17.8293L18.6668 16.8865L18 17.1221V17.8293H19ZM5 7C5 5.89543 5.89543 5 7 5V3C4.79086 3 3 4.79086 3 7H5ZM5 15V7H3V15H5ZM7 17C5.89543 17 5 16.1046 5 15H3C3 17.2091 4.79086 19 7 19V17ZM15 17H7V19H15V17ZM17.3071 18.8929L15.7071 17.2929L14.2929 18.7071L15.8929 20.3071L17.3071 18.8929ZM18 19.5858L17.3071 18.8929L15.8929 20.3071L16.5858 21L18 19.5858ZM18 19.5858V19.5858L16.5858 21C17.8457 22.2599 20 21.3676 20 19.5858H18ZM18 17.8293V19.5858H20V17.8293H18ZM20 15C20 15.8692 19.4449 16.6114 18.6668 16.8865L19.3332 18.7721C20.8855 18.2235 22 16.7432 22 15H20ZM20 7V15H22V7H20ZM18 5C19.1046 5 20 5.89543 20 7H22C22 4.79086 20.2091 3 18 3V5ZM7 5H18V3H7V5Z" fill="#555555" mask="url(#path-1-inside-1)"/>
</svg>
